<?xml version="1.0" standalone="no"?>
<!DOCTYPE svg PUBLIC "-//W3C//DTD SVG 20010904//EN"
 "http://www.w3.org/TR/2001/REC-SVG-20010904/DTD/svg10.dtd">
<svg version="1.0" xmlns="http://www.w3.org/2000/svg"
 width="260.000000pt" height="260.000000pt" viewBox="0 0 260.000000 260.000000"
 preserveAspectRatio="xMidYMid meet">
<metadata>
Created by potrace 1.11, written by Peter Selinger 2001-2013
</metadata>
<g transform="translate(0.000000,260.000000) scale(0.100000,-0.100000)"
fill="#000000" stroke="none">
<path d="M0 1300 l0 -1300 1300 0 1300 0 0 1300 0 1300 -1300 0 -1300 0 0
-1300z m1380 918 c23 -17 66 -81 150 -228 64 -113 168 -295 232 -405 662
-1150 618 -1071 618 -1112 0 -38 -33 -89 -72 -113 -32 -20 -53 -20 -994 -20
-1062 0 -1014 -3 -1054 63 -11 18 -20 50 -20 72 0 43 10 66 100 220 125 215
355 614 395 685 23 41 93 163 155 270 61 107 158 276 214 374 71 126 110 184
131 197 42 26 104 24 145 -3z"/>
<path d="M1246 2128 c-14 -13 -81 -120 -149 -238 -145 -253 -320 -556 -442
-765 -342 -587 -335 -575 -335 -613 0 -44 14 -68 50 -87 25 -13 146 -15 935
-15 995 0 947 -3 980 60 29 55 56 0 -372 735 -100 172 -388 670 -485 837 -21
37 -50 76 -64 87 -35 28 -86 27 -118 -1z m78 -95 c4 -10 31 -58 60 -108 30
-49 107 -182 172 -295 64 -113 148 -257 184 -320 37 -63 127 -218 200 -345 74
-126 162 -278 197 -338 35 -59 63 -109 63 -112 0 -3 -403 -5 -894 -5 l-895 0
33 58 c72 126 188 326 288 497 57 99 142 245 188 325 46 80 111 192 145 250
34 58 101 174 149 258 48 83 91 152 96 152 4 0 11 -8 14 -17z"/>
<path d="M1274 1417 c-2 -7 -3 -58 -2 -112 l3 -98 67 -22 c37 -12 70 -20 73
-17 3 3 5 63 5 134 l0 128 -70 0 c-49 0 -72 -4 -76 -13z"/>
<path d="M895 1103 c-33 -103 -59 -189 -58 -192 2 -6 38 -18 480 -161 156 -50
288 -93 295 -95 9 -4 32 51 76 183 34 103 62 190 62 194 0 3 -12 9 -27 12 -16
4 -192 61 -393 127 -201 65 -367 119 -370 119 -3 0 -32 -84 -65 -187z"/>
<path d="M1735 918 c-22 -60 -55 -164 -55 -174 0 -12 86 -51 95 -43 2 2 20 48
39 102 25 69 32 99 23 102 -7 2 -27 8 -46 14 -43 14 -51 14 -56 -1z"/>
</g>
</svg>
